<svg width="1674" height="897" viewBox="0 0 1674 897" fill="none" xmlns="http://www.w3.org/2000/svg">
<path d="M713.668 215.543H751.853V489.204L764.582 501.932H770.946L783.674 489.204V215.543H815.495V501.932L783.674 533.754H751.853L720.032 501.932V247.364H713.668V215.543Z" fill="#D5B06A"/>
<path d="M710.362 501.932L678.541 533.754H646.72L614.899 501.932V247.364L646.72 215.543H678.541L710.362 247.364V501.932ZM659.448 247.364L646.72 260.093V489.204L659.448 501.932H665.812L678.541 489.204V260.093L665.812 247.364H659.448Z" fill="#D5B06A"/>
<path d="M503.401 215.543H573.408L605.229 247.364V342.827L589 359.056L605.229 374.648V533.754H573.408V387.377L560.679 374.648H541.587V533.754H509.766V247.364H503.401V215.543ZM573.408 330.099V260.093L560.679 247.364H541.587V342.827H560.679L573.408 330.099Z" fill="#D5B06A"/>
<path d="M500.094 247.364H468.273V533.754H436.452V247.364H404.631V215.543H500.094V247.364Z" fill="#D5B06A"/>
<path d="M293.133 215.543H394.961V247.364H331.319V342.827H363.14V374.648H331.319V501.932H394.961V533.754H299.498V247.364H293.133V215.543Z" fill="#D5B06A"/>
<path d="M188 215.543H258.006L289.827 247.364V342.827L273.599 359.056L289.827 374.648V533.754H258.006V387.377L245.278 374.648H226.185V533.754H194.364V247.364H188V215.543ZM258.006 330.099V260.093L245.278 247.364H226.185V342.827H245.278L258.006 330.099Z" fill="#D5B06A"/>
<path d="M1057.84 215.543H1072.16V318.166L1076.93 322.939H1079.32L1084.09 318.166V215.543H1096.03V322.939L1084.09 334.872H1072.16L1060.23 322.939V227.476H1057.84V215.543Z" fill="#D5B06A"/>
<path d="M1056.6 322.939L1044.67 334.872H1032.74L1020.8 322.939V227.476L1032.74 215.543H1044.67L1056.6 227.476V322.939ZM1037.51 227.476L1032.74 232.249V318.166L1037.51 322.939H1039.9L1044.67 318.166V232.249L1039.9 227.476H1037.51Z" fill="#D5B06A"/>
<path d="M978.992 215.543H1005.24L1017.18 227.476V263.275L1011.09 269.361L1017.18 275.208V334.872H1005.24V279.981L1000.47 275.208H993.311V334.872H981.378V227.476H978.992V215.543ZM1005.24 258.502V232.249L1000.47 227.476H993.311V263.275H1000.47L1005.24 258.502Z" fill="#D5B06A"/>
<path d="M977.752 227.476H965.819V334.872H953.886V227.476H941.953V215.543H977.752V227.476Z" fill="#D5B06A"/>
<path d="M900.141 215.543H938.327V227.476H914.461V263.275H926.394V275.208H914.461V322.939H938.327V334.872H902.528V227.476H900.141V215.543Z" fill="#D5B06A"/>
<path d="M860.717 215.543H886.969L898.902 227.476V263.275L892.816 269.361L898.902 275.208V334.872H886.969V279.981L882.196 275.208H875.036V334.872H863.103V227.476H860.717V215.543ZM886.969 258.502V232.249L882.196 227.476H875.036V263.275H882.196L886.969 258.502Z" fill="#D5B06A"/>
<path d="M1382.28 359.732H1484.11V391.553H1420.47V487.016H1452.29V518.837H1420.47V646.121H1484.11V677.942H1388.65V391.553H1382.28V359.732Z" fill="#D5B06A"/>
<path d="M1315.4 359.732H1353.58V677.942H1321.76V391.553H1315.4V359.732Z" fill="#D5B06A"/>
<path d="M1184.81 359.732H1222.99V646.121H1286.63V677.942H1191.17V391.553H1184.81V359.732Z" fill="#D5B06A"/>
<path d="M1117.92 359.732H1156.1V677.942H1124.28V391.553H1117.92V359.732Z" fill="#D5B06A"/>
<path d="M1089.16 391.553V677.942H1057.33V518.837H1025.51V677.942H993.693V391.553L1025.51 359.732H1057.33L1089.16 391.553ZM1025.51 487.016H1057.33V404.282L1044.61 391.553H1038.88L1025.51 404.918V487.016Z" fill="#D5B06A"/>
<path d="M910.516 677.942L863.103 630.529V391.553H856.739V359.732H894.924V616.846L910.516 632.757L926.745 616.528V359.732H958.566V630.211L910.516 677.942Z" fill="#D5B06A"/>
<path d="M796.763 558.614H834.949V570.547H811.083V606.345H823.016V618.278H811.083V666.01H834.949V677.942H799.15V570.547H796.763V558.614Z" fill="#D5B06A"/>
<path d="M771.681 558.614H786V677.942H774.067V570.547H771.681V558.614Z" fill="#D5B06A"/>
<path d="M722.71 558.614H737.029V666.01H760.895V677.942H725.096V570.547H722.71V558.614Z" fill="#D5B06A"/>
<path d="M697.627 558.614H711.947V677.942H700.014V570.547H697.627V558.614Z" fill="#D5B06A"/>
<path d="M686.841 570.547V677.942H674.908V618.278H662.975V677.942H651.042V570.547L662.975 558.614H674.908L686.841 570.547ZM662.975 606.345H674.908V575.32L670.135 570.547H667.987L662.975 575.558V606.345Z" fill="#D5B06A"/>
<path d="M619.851 677.942L602.071 660.162V570.547H599.684V558.614H614.004V655.031L619.851 660.998L625.937 654.912V558.614H637.87V660.043L619.851 677.942Z" fill="#D5B06A"/>
<rect x="188" y="558.951" width="389.074" height="118.732" fill="#C9B96D"/>
<rect x="188" y="558.951" width="389.074" height="102.292" fill="#C4852C"/>
<rect x="188" y="558.951" width="389.074" height="31.0529" fill="#BE432A"/>
<rect x="1117.76" y="215.543" width="367.154" height="118.732" fill="#C9B96D"/>
<rect x="1117.76" y="215.543" width="367.154" height="102.292" fill="#C4852C"/>
<rect x="1117.76" y="215.543" width="367.154" height="31.0529" fill="#BE432A"/>
<path d="M1476.69 0L1491.33 79.4377L1570.77 94.0719L1491.33 108.706L1476.69 188.144L1462.06 108.706L1382.62 94.0719L1462.06 79.4377L1476.69 0Z" fill="#C4852C"/>
<path d="M1608.21 136.998L1618.3 191.756L1673.06 201.844L1618.3 211.931L1608.21 266.689L1598.12 211.931L1543.37 201.844L1598.12 191.756L1608.21 136.998Z" fill="#C4852C"/>
<path d="M196.364 896.689L181.73 817.252L102.292 802.617L181.73 787.983L196.364 708.545L210.998 787.983L290.436 802.617L210.998 817.252L196.364 896.689Z" fill="#C4852C"/>
<path d="M64.8457 759.691L54.7581 704.933L8.19629e-05 694.846L54.7581 684.758L64.8458 630L74.9334 684.758L129.691 694.846L74.9334 704.933L64.8457 759.691Z" fill="#C4852C"/>
</svg>
